# xmcd
#
# Track frame offsets:
#	150
#	18938
#	32751
#	55370
#	75080
#	91137
#	107977
#	124335
#	145783
#	160410
#	178410
#	196016
#	210132
#	228427
#	251773
#
# Disc length: 3632 seconds
#
# Revision: 1
# Processed by: cddbd v1.4PL0 Copyright (c) Steve Scherf et al.
# Submitted via: EasyCDDAExtractor 5.0.6
#
DISCID=c00e2e0f
DTITLE=Les Getrex - Sings The Classics
DYEAR=2003
DGENRE=Blues
TTITLE0=Farther On Up The Roads
TTITLE1=Fool For You
TTITLE2=Misty
TTITLE3=Elvina
TTITLE4=Hallelujah I Love Her So
TTITLE5=Tennessee Waltz
TTITLE6=Marry Ann
TTITLE7=Indian Red
TTITLE8=Mr. Pitifull
TTITLE9=Boom Boom
TTITLE10=When My Dreamboat Comes Home
TTITLE11=I Found a Love
TTITLE12=Jambalaya
TTITLE13=Stoop Down Mama
TTITLE14=Can't Take My Baby Nowhere
EXTD=
EXTT0=
EXTT1=
EXTT2=
EXTT3=
EXTT4=
EXTT5=
EXTT6=
EXTT7=
EXTT8=
EXTT9=
EXTT10=
EXTT11=
EXTT12=
EXTT13=
EXTT14=
PLAYORDER=
